<svg aria-hidden="true" style="position: absolute; width: 0; height: 0; overflow: hidden;" version="1.1" xmlns="http://www.w3.org/2000/svg" xmlns:xlink="http://www.w3.org/1999/xlink">
<defs>
<symbol id="icon-facebook" viewBox="0 0 32 32">
<title>facebook</title>
<path d="M19 6h5v-6h-5c-3.86 0-7 3.14-7 7v3h-4v6h4v16h6v-16h5l1-6h-6v-3c0-0.542 0.458-1 1-1z"></path>
</symbol>
<symbol id="icon-instagram" viewBox="0 0 32 32">
<title>instagram</title>
<path d="M16 2.881c4.275 0 4.781 0.019 6.462 0.094 1.563 0.069 2.406 0.331 2.969 0.55 0.744 0.288 1.281 0.638 1.837 1.194 0.563 0.563 0.906 1.094 1.2 1.838 0.219 0.563 0.481 1.412 0.55 2.969 0.075 1.688 0.094 2.194 0.094 6.463s-0.019 4.781-0.094 6.463c-0.069 1.563-0.331 2.406-0.55 2.969-0.288 0.744-0.637 1.281-1.194 1.837-0.563 0.563-1.094 0.906-1.837 1.2-0.563 0.219-1.413 0.481-2.969 0.55-1.688 0.075-2.194 0.094-6.463 0.094s-4.781-0.019-6.463-0.094c-1.563-0.069-2.406-0.331-2.969-0.55-0.744-0.288-1.281-0.637-1.838-1.194-0.563-0.563-0.906-1.094-1.2-1.837-0.219-0.563-0.481-1.413-0.55-2.969-0.075-1.688-0.094-2.194-0.094-6.463s0.019-4.781 0.094-6.463c0.069-1.563 0.331-2.406 0.55-2.969 0.288-0.744 0.638-1.281 1.194-1.838 0.563-0.563 1.094-0.906 1.838-1.2 0.563-0.219 1.412-0.481 2.969-0.55 1.681-0.075 2.188-0.094 6.463-0.094zM16 0c-4.344 0-4.887 0.019-6.594 0.094-1.7 0.075-2.869 0.35-3.881 0.744-1.056 0.412-1.95 0.956-2.837 1.85-0.894 0.888-1.438 1.781-1.85 2.831-0.394 1.019-0.669 2.181-0.744 3.881-0.075 1.713-0.094 2.256-0.094 6.6s0.019 4.887 0.094 6.594c0.075 1.7 0.35 2.869 0.744 3.881 0.413 1.056 0.956 1.95 1.85 2.837 0.887 0.887 1.781 1.438 2.831 1.844 1.019 0.394 2.181 0.669 3.881 0.744 1.706 0.075 2.25 0.094 6.594 0.094s4.888-0.019 6.594-0.094c1.7-0.075 2.869-0.35 3.881-0.744 1.050-0.406 1.944-0.956 2.831-1.844s1.438-1.781 1.844-2.831c0.394-1.019 0.669-2.181 0.744-3.881 0.075-1.706 0.094-2.25 0.094-6.594s-0.019-4.887-0.094-6.594c-0.075-1.7-0.35-2.869-0.744-3.881-0.394-1.063-0.938-1.956-1.831-2.844-0.887-0.887-1.781-1.438-2.831-1.844-1.019-0.394-2.181-0.669-3.881-0.744-1.712-0.081-2.256-0.1-6.6-0.1v0z"></path>
<path d="M16 7.781c-4.537 0-8.219 3.681-8.219 8.219s3.681 8.219 8.219 8.219 8.219-3.681 8.219-8.219c0-4.537-3.681-8.219-8.219-8.219zM16 21.331c-2.944 0-5.331-2.387-5.331-5.331s2.387-5.331 5.331-5.331c2.944 0 5.331 2.387 5.331 5.331s-2.387 5.331-5.331 5.331z"></path>
<path d="M26.462 7.456c0 1.060-0.859 1.919-1.919 1.919s-1.919-0.859-1.919-1.919c0-1.060 0.859-1.919 1.919-1.919s1.919 0.859 1.919 1.919z"></path>
</symbol>
<symbol id="icon-twitter" viewBox="0 0 32 32">
<title>twitter</title>
<path d="M32 7.075c-1.175 0.525-2.444 0.875-3.769 1.031 1.356-0.813 2.394-2.1 2.887-3.631-1.269 0.75-2.675 1.3-4.169 1.594-1.2-1.275-2.906-2.069-4.794-2.069-3.625 0-6.563 2.938-6.563 6.563 0 0.512 0.056 1.012 0.169 1.494-5.456-0.275-10.294-2.888-13.531-6.862-0.563 0.969-0.887 2.1-0.887 3.3 0 2.275 1.156 4.287 2.919 5.463-1.075-0.031-2.087-0.331-2.975-0.819 0 0.025 0 0.056 0 0.081 0 3.181 2.263 5.838 5.269 6.437-0.55 0.15-1.131 0.231-1.731 0.231-0.425 0-0.831-0.044-1.237-0.119 0.838 2.606 3.263 4.506 6.131 4.563-2.25 1.762-5.075 2.813-8.156 2.813-0.531 0-1.050-0.031-1.569-0.094 2.913 1.869 6.362 2.95 10.069 2.95 12.075 0 18.681-10.006 18.681-18.681 0-0.287-0.006-0.569-0.019-0.85 1.281-0.919 2.394-2.075 3.275-3.394z"></path>
</symbol>
<symbol id="icon-menu" viewBox="0 0 20 20">
<title>menu</title>
<path d="M16.4 9h-12.8c-0.552 0-0.6 0.447-0.6 1s0.048 1 0.6 1h12.8c0.552 0 0.6-0.447 0.6-1s-0.048-1-0.6-1zM16.4 13h-12.8c-0.552 0-0.6 0.447-0.6 1s0.048 1 0.6 1h12.8c0.552 0 0.6-0.447 0.6-1s-0.048-1-0.6-1zM3.6 7h12.8c0.552 0 0.6-0.447 0.6-1s-0.048-1-0.6-1h-12.8c-0.552 0-0.6 0.447-0.6 1s0.048 1 0.6 1z"></path>
</symbol>
<symbol id="icon-cloud" viewBox="0 0 24 24">
<title>cloud</title>
<path d="M18 9h-0.5c-0.7-2-2.1-3.7-3.9-4.8-2.1-1.2-4.5-1.6-6.8-1-2.4 0.7-4.3 2.2-5.6 4.2-1.2 2.1-1.6 4.5-1 6.8 1 4 4.6 6.8 8.7 6.8 0 0 0 0 0 0h9c3.3 0 6-2.7 6-6s-2.6-6-5.9-6zM18 19h-9c0 0 0 0 0 0-3.2 0-6-2.2-6.8-5.2-0.5-1.9-0.2-3.7 0.8-5.4s2.5-2.8 4.3-3.2c0.5-0.1 1.1-0.2 1.7-0.2 3.1 0 6 2.1 6.8 5.3 0.1 0.4 0.5 0.8 1 0.8h1.2c2.2 0 4 1.8 4 4 0 2.1-1.8 3.9-4 3.9z"></path>
</symbol>
<symbol id="icon-file" viewBox="0 0 32 32">
<title>file-text2</title>
<path d="M28.681 7.159c-0.694-0.947-1.662-2.053-2.724-3.116s-2.169-2.030-3.116-2.724c-1.612-1.182-2.393-1.319-2.841-1.319h-15.5c-1.378 0-2.5 1.121-2.5 2.5v27c0 1.378 1.122 2.5 2.5 2.5h23c1.378 0 2.5-1.122 2.5-2.5v-19.5c0-0.448-0.137-1.23-1.319-2.841zM24.543 5.457c0.959 0.959 1.712 1.825 2.268 2.543h-4.811v-4.811c0.718 0.556 1.584 1.309 2.543 2.268zM28 29.5c0 0.271-0.229 0.5-0.5 0.5h-23c-0.271 0-0.5-0.229-0.5-0.5v-27c0-0.271 0.229-0.5 0.5-0.5 0 0 15.499-0 15.5 0v7c0 0.552 0.448 1 1 1h7v19.5z"></path>
<path d="M23 26h-14c-0.552 0-1-0.448-1-1s0.448-1 1-1h14c0.552 0 1 0.448 1 1s-0.448 1-1 1z"></path>
<path d="M23 22h-14c-0.552 0-1-0.448-1-1s0.448-1 1-1h14c0.552 0 1 0.448 1 1s-0.448 1-1 1z"></path>
<path d="M23 18h-14c-0.552 0-1-0.448-1-1s0.448-1 1-1h14c0.552 0 1 0.448 1 1s-0.448 1-1 1z"></path>
</symbol>
<symbol id="icon-checkmark" viewBox="0 0 32 32">
<title>checkmark</title>
<path d="M27 4l-15 15-7-7-5 5 12 12 20-20z"></path>
</symbol>
<symbol id="icon-location" viewBox="0 0 32 32">
<title>location</title>
<path d="M16 0c-5.523 0-10 4.477-10 10 0 10 10 22 10 22s10-12 10-22c0-5.523-4.477-10-10-10zM16 16c-3.314 0-6-2.686-6-6s2.686-6 6-6 6 2.686 6 6-2.686 6-6 6z"></path>
</symbol>
<symbol id="icon-envelope" viewBox="0 0 32 32">
<title>envelope</title>
<path d="M29 4h-26c-1.657 0-3 1.343-3 3v18c0 1.656 1.343 3 3 3h26c1.657 0 3-1.344 3-3v-18c0-1.657-1.343-3-3-3zM2.741 25.99l-0.731-0.732 8.249-8.248 0.731 0.732-8.249 8.248zM29.259 25.99l-8.249-8.248 0.731-0.732 8.249 8.248-0.731 0.732zM17 19.325v0.675h-2v-0.675l-12.997-12.050 1.272-1.272 12.725 11.798 12.725-11.798 1.272 1.272-12.997 12.050z"></path>
</symbol>
<symbol id="icon-phone" viewBox="0 0 32 32">
<title>phone</title>
<path d="M22 20c-2 2-2 4-4 4s-4-2-6-4-4-4-4-6 2-2 4-4-4-8-6-8-6 6-6 6c0 4 4.109 12.109 8 16s12 8 16 8c0 0 6-4 6-6s-6-8-8-6z"></path>
</symbol>
<symbol id="icon-bubble" viewBox="0 0 32 32">
<title>bubble</title>
<path d="M16 2c8.837 0 16 5.82 16 13s-7.163 13-16 13c-0.849 0-1.682-0.054-2.495-0.158-3.437 3.437-7.539 4.053-11.505 4.144v-0.841c2.142-1.049 4-2.961 4-5.145 0-0.305-0.024-0.604-0.068-0.897-3.619-2.383-5.932-6.024-5.932-10.103 0-7.18 7.163-13 16-13z"></path>
</symbol>
<symbol id="icon-user" viewBox="0 0 24 32">
<title>user</title>
<path d="M12 16c-6.625 0-12 5.375-12 12 0 2.211 1.789 4 4 4h16c2.211 0 4-1.789 4-4 0-6.625-5.375-12-12-12zM6 6c0-3.314 2.686-6 6-6s6 2.686 6 6c0 3.314-2.686 6-6 6s-6-2.686-6-6z"></path>
</symbol>
<symbol id="icon-more" viewBox="0 0 24 24">
<title>more</title>
<path d="M14 12c0 1.105-0.895 2-2 2s-2-0.895-2-2c0-1.105 0.895-2 2-2s2 0.895 2 2z"></path>
<path d="M21 12c0 1.105-0.895 2-2 2s-2-0.895-2-2c0-1.105 0.895-2 2-2s2 0.895 2 2z"></path>
<path d="M7 12c0 1.105-0.895 2-2 2s-2-0.895-2-2c0-1.105 0.895-2 2-2s2 0.895 2 2z"></path>
</symbol>
<symbol id="icon-clock" viewBox="0 0 32 32">
<title>clock</title>
<path d="M16 0c-8.837 0-16 7.163-16 16s7.163 16 16 16 16-7.163 16-16-7.163-16-16-16zM20.586 23.414l-6.586-6.586v-8.828h4v7.172l5.414 5.414-2.829 2.829z"></path>
</symbol>
<symbol id="icon-folder" viewBox="0 0 32 32">
<title>folder</title>
<path d="M14 4l4 4h14v22h-32v-26z"></path>
</symbol>
<symbol id="icon-reply" viewBox="0 0 32 32">
<title>undo2</title>
<path d="M23.808 32c3.554-6.439 4.153-16.26-9.808-15.932v7.932l-12-12 12-12v7.762c16.718-0.436 18.58 14.757 9.808 24.238z"></path>
</symbol>
<!-- Services Icons -->
<symbol id="icon-webdev" viewBox="0 0 512.001 512.001" style="enable-background:new 0 0 512.001 512.001;">
<title>webdev</title>
<path style="fill:#A5DDFF;" d="M340.003,502L340.003,502H171.997l0,0c0-22.127,17.938-40.064,40.064-40.064h87.879
	C322.066,461.936,340.003,479.873,340.003,502z"/>
<rect x="216.979" y="396.946" style="fill:#5CC1FF;" width="78.043" height="64.989"/>
<path style="fill:#DFF3FF;" d="M412.327,63.999h44.877c9.833,0,17.806,7.949,17.806,17.755v296.487
	c0,9.805-7.972,17.755-17.806,17.755H54.798c-9.833,0-17.806-7.949-17.806-17.755V81.753c0-9.805,7.972-17.755,17.806-17.755h47.184
	C101.982,63.999,412.327,63.999,412.327,63.999z"/>
<path style="fill:#FFFFFF;" d="M388.006,331.993H123.996V20.001c0-5.523,4.477-10,10-10h244.01c5.523,0,10,4.477,10,10V331.993z"/>
<rect x="36.992" y="331.994" style="fill:#A5DDFF;" width="438.018" height="64.003"/>
<path style="fill:#FFCDAC;" d="M276.294,105.809v5.073c0,11.207-9.085,20.294-20.294,20.294l0,0l0,0
	c-11.207,0-20.294-9.085-20.294-20.294v-5.073c0-11.207,9.085-20.294,20.294-20.294l0,0
	C267.208,85.516,276.294,94.602,276.294,105.809z"/>
<path style="fill:#FE6663;" d="M256.001,131.176L256.001,131.176c-19.81,0-36.734,12.307-43.578,29.685
	c11.426,10.632,26.738,17.146,43.578,17.146s32.151-6.513,43.578-17.146C292.736,143.482,275.811,131.176,256.001,131.176z"/>
<path d="M256.001,353.985c-2.63,0-5.21,1.07-7.07,2.93c-1.86,1.86-2.93,4.44-2.93,7.07c0,2.63,1.069,5.2,2.93,7.07
	c1.86,1.859,4.44,2.93,7.07,2.93c2.63,0,5.21-1.07,7.069-2.93c1.86-1.86,2.931-4.44,2.931-7.07c0-2.64-1.07-5.21-2.931-7.07
	C261.211,355.055,258.631,353.985,256.001,353.985z"/>
<path d="M457.204,53.998h-59.197V20.001C398.007,8.972,389.034,0,378.006,0h-244.01c-11.028,0-20.001,8.972-20.001,20.001v33.997
	H54.797c-15.332,0-27.806,12.451-27.806,27.755v296.488c0,15.305,12.475,27.755,27.806,27.755h152.181v46.196
	c-25.228,2.555-44.982,23.918-44.982,49.808c0,5.522,4.478,10,10,10h168.007c5.522,0,10-4.478,10-10
	c0-25.889-19.754-47.252-44.981-49.808v-46.196h152.181c15.332,0,27.806-12.451,27.806-27.755V81.753
	C485.01,66.449,472.536,53.998,457.204,53.998z M285.022,451.936h-58.043v-45.94h58.043V451.936z M328.293,491.999H183.707
	c4.13-11.676,15.28-20.064,28.354-20.064h4.918h78.044h4.916C313.013,471.936,324.163,480.324,328.293,491.999z M457.204,73.999
	c4.304,0,7.805,3.479,7.805,7.754v240.239h-67.003V73.999H457.204z M54.797,73.999h59.197v67.007c0,5.523,4.478,10,10,10
	c5.522,0,10-4.477,10-10V20.001h244.01v301.991h-244.01V213.373c0-5.523-4.478-10-10-10c-5.522,0-10,4.477-10,10v108.619H46.991
	V81.753C46.992,77.478,50.494,73.999,54.797,73.999z M457.204,385.995H54.797c-4.304,0-7.805-3.479-7.805-7.754v-36.247h77.003
	h264.011h77.003v36.247C465.01,382.517,461.508,385.995,457.204,385.995z"/>
<path d="M205.003,167.553c0.361,0.401,0.75,0.781,1.178,1.123c13.159,12.001,30.648,19.332,49.82,19.332s36.661-7.33,49.82-19.332
	c0.428-0.342,0.816-0.722,1.178-1.123c14.156-13.488,23.005-32.498,23.005-53.548c0-40.806-33.197-74.003-74.003-74.003
	s-74.003,33.197-74.003,74.003C181.998,135.055,190.846,154.065,205.003,167.553z M224.986,158.171
	c6.672-10.497,18.204-16.995,31.015-16.995c12.811,0,24.343,6.498,31.015,16.995c-8.784,6.187-19.479,9.835-31.015,9.835
	S233.77,164.359,224.986,158.171z M245.708,110.883v-5.073c0-5.675,4.617-10.292,10.293-10.292c5.676,0,10.293,4.617,10.293,10.292
	v5.073c0,5.676-4.617,10.293-10.293,10.293C250.325,121.176,245.708,116.559,245.708,110.883z M256.001,60.002
	c29.776,0,54.002,24.225,54.002,54.002c0,10.883-3.247,21.018-8.808,29.506c-5.257-6.929-11.991-12.496-19.673-16.338
	c3.016-4.708,4.773-10.296,4.773-16.291v-5.073c0-16.704-13.591-30.293-30.294-30.293s-30.294,13.59-30.294,30.293v5.073
	c0,5.994,1.757,11.582,4.773,16.291c-7.681,3.843-14.417,9.408-19.673,16.338c-5.561-8.488-8.808-18.623-8.808-29.506
	C201.999,84.227,226.224,60.002,256.001,60.002z"/>
<path d="M123.996,185.008c2.63,0,5.21-1.07,7.069-2.93c1.86-1.86,2.931-4.44,2.931-7.07s-1.07-5.21-2.931-7.07
	c-1.859-1.86-4.439-2.93-7.069-2.93c-2.63,0-5.21,1.07-7.07,2.93c-1.86,1.86-2.93,4.44-2.93,7.07s1.069,5.21,2.93,7.07
	S121.365,185.008,123.996,185.008z"/>
<path d="M318.004,212.009H201.999c-5.522,0-10,4.477-10,10c0,5.523,4.478,10,10,10h116.005c5.522,0,10-4.477,10-10
	C328.004,216.486,323.526,212.009,318.004,212.009z"/>
<path d="M318.004,256.01c-2.63,0-5.21,1.069-7.07,2.93c-1.86,1.861-2.93,4.44-2.93,7.07c0,2.63,1.069,5.21,2.93,7.069
	c1.86,1.86,4.44,2.931,7.07,2.931c2.63,0,5.21-1.07,7.069-2.931c1.86-1.859,2.931-4.439,2.931-7.069c0-2.63-1.07-5.21-2.931-7.07
	C323.214,257.08,320.634,256.01,318.004,256.01z"/>
<path d="M279.673,256.01h-77.674c-5.522,0-10,4.478-10,10c0,5.522,4.478,10,10,10h77.674c5.522,0,10-4.478,10-10
	C289.673,260.489,285.195,256.01,279.673,256.01z"/>
</symbol>



</defs>
</svg>
